<?xml version="1.0" encoding="UTF-8"?> <svg xmlns="http://www.w3.org/2000/svg" width="39.863" height="55.974" viewBox="0 0 39.863 55.974"><path id="Контур_17" data-name="Контур 17" d="M40.019,26.348v29.81H.156V.184H3.15V15.427H18.426v-8.9h3.149V36.733H37.149V26.339Zm-8.8,13.631h5.032v5.032H31.214Zm0,7.539h5.032V52.55H31.214Zm-8.478-7.539h5.032v5.032H22.737Zm0,7.539h5.032V52.55H22.737Zm-9.92-2.811h5.032V49.74H12.817Zm-8.994,0H8.856V49.74H3.823Zm8.994-8.332h5.032v5.033H12.817Zm-8.994,0H8.856v5.033H3.823Zm8.994-8.729h5.032v5.033H12.817Zm-8.994,0H8.856v5.033H3.823Zm8.994-8.729h5.032v5.033H12.817Zm-8.994,0H8.856v5.033H3.823Z" transform="translate(-0.156 -0.184)" fill="#fff" fill-rule="evenodd"></path></svg> 