<?xml version="1.0" encoding="UTF-8"?> <svg xmlns="http://www.w3.org/2000/svg" width="45.125" height="55.264" viewBox="0 0 45.125 55.264"><path id="Контур_15" data-name="Контур 15" d="M39.011,39.349S43.759,49.843,45.6,54.363c-.142,1.8-2.715,1.384-2.715,1.384L36.6,39.96l-1.043-.138-9.19-23.517-6.639-.086L10.04,39.512l-.7.477s-3.393,8.317-6,15.248C.729,57.374.473,54.2.473,54.2L6.565,38.7l-.123-.172-.049-.55L15.152,16.4H13.425V11.777h4.51v-4.3h-4.4v1.3L8.957,8.8l-.239-.181L8.824,1.26l4.474.046-.026,1.256s3.948-.08,5.885-.023c4.485-4.162,7.679.089,7.679.089s3.558-.1,8.661-.069c3.176,2.581-.014,4.95-.014,4.95L28.05,7.5l.018,4.129,4.517.257.012,4.29-1.823.22,8.395,21.517ZM24.824,19.1V37l-.24.652-.2.176v13.02s-1.313,2-2.541.006c-.031-4.188,0-12.927,0-12.927l-.42-.515-.384-.276.009-.4L20.878,19.1Z" transform="translate(-0.473 -0.712)" fill="#fff" fill-rule="evenodd"></path></svg> 