<?xml version="1.0" encoding="UTF-8"?> <svg xmlns="http://www.w3.org/2000/svg" width="70.158" height="55.236" viewBox="0 0 70.158 55.236"><path id="Контур_16" data-name="Контур 16" d="M46.466,53.09s3.889-3.815,4.295-6.932c.172-.985.1-3.507-2.111-2.594-1.687,1.217-4.553,4.025-4.9,7.471C43.679,52.189,43.72,54.893,46.466,53.09ZM8.9,16.822l42.986,25.13s3.862,12.155-8.122,14.025C38.7,52.964.39,30.855.39,30.855S-2.749,19.631,8.9,16.822Zm6.561.032L15.392,1.936a2.559,2.559,0,0,1,2.3-1.183c2.276,0,51.016,0,51.016,0S70.169.508,70.14,2.212c.051,2.494,0,20.165,0,20.165L59.873,39.621l-.605.789-.8.741-.734.47L53.85,39.286s4.381.629,4.346-5.976c-.184-2.192-.348-3.692-.736-3.9a1.917,1.917,0,0,1-.026-1.084l.23-.375,1.731-.56s7.29-2.363,7.715-5.826c.014-5.091.077-17.817.077-17.817l-48.713.1-.089,14.834Zm12.929,7.719L28.58,8.917l26.1.069v6.039h-2.73V11.412H42.943V21.949H37.352V19.589h3.354V11.46H30.974V25.777ZM38,30.031l3.666,2.163H54.35V21.82H52.366l-.493-.02v7.92Z" transform="translate(-0.005 -0.741)" fill="#fff" fill-rule="evenodd"></path></svg> 